<mxfile host="Electron" modified="2024-09-21T03:21:20.646Z" agent="Mozilla/5.0 (Windows NT 10.0; Win64; x64) AppleWebKit/537.36 (KHTML, like Gecko) draw.io/24.4.0 Chrome/120.0.6099.109 Electron/28.1.0 Safari/537.36" etag="pVFg__YPFcPOxHOEjqD3" version="24.4.0" type="device">
  <diagram name="第 1 页" id="vmZP7ov1JssEVtM7jOMK">
    <mxGraphModel dx="714" dy="423" grid="1" gridSize="10" guides="1" tooltips="1" connect="1" arrows="1" fold="1" page="1" pageScale="1" pageWidth="827" pageHeight="1169" math="0" shadow="0">
      <root>
        <mxCell id="0" />
        <mxCell id="1" parent="0" />
        <mxCell id="-OTsxO2Ze_JeyVa3Rk2h-1" value="" style="image;html=1;image=img/lib/clip_art/networking/Wireless_Router_N_128x128.png;fontFamily=Times New Roman;fontSize=15;" vertex="1" parent="1">
          <mxGeometry x="40" y="160" width="80" height="80" as="geometry" />
        </mxCell>
        <mxCell id="-OTsxO2Ze_JeyVa3Rk2h-2" value="" style="image;html=1;image=img/lib/clip_art/networking/Wireless_Router_N_128x128.png;fontFamily=Times New Roman;fontSize=15;" vertex="1" parent="1">
          <mxGeometry x="240" y="160" width="80" height="80" as="geometry" />
        </mxCell>
        <mxCell id="-OTsxO2Ze_JeyVa3Rk2h-3" value="" style="image;html=1;image=img/lib/clip_art/computers/Laptop_128x128.png;fontFamily=Times New Roman;fontSize=15;" vertex="1" parent="1">
          <mxGeometry x="440" y="160" width="80" height="80" as="geometry" />
        </mxCell>
        <mxCell id="-OTsxO2Ze_JeyVa3Rk2h-4" value="" style="shape=link;html=1;rounded=0;entryX=0;entryY=0.25;entryDx=0;entryDy=0;fillColor=#f0a30a;strokeColor=#BD7000;width=10;fontFamily=Times New Roman;fontSize=15;" edge="1" parent="1" target="-OTsxO2Ze_JeyVa3Rk2h-2">
          <mxGeometry width="100" relative="1" as="geometry">
            <mxPoint x="121" y="180" as="sourcePoint" />
            <mxPoint x="261" y="180" as="targetPoint" />
          </mxGeometry>
        </mxCell>
        <mxCell id="-OTsxO2Ze_JeyVa3Rk2h-5" value="" style="shape=link;html=1;rounded=0;entryX=0;entryY=0.75;entryDx=0;entryDy=0;exitX=1;exitY=0.75;exitDx=0;exitDy=0;fillColor=#1ba1e2;strokeColor=#006EAF;width=10;fontFamily=Times New Roman;fontSize=15;" edge="1" parent="1" source="-OTsxO2Ze_JeyVa3Rk2h-1" target="-OTsxO2Ze_JeyVa3Rk2h-2">
          <mxGeometry width="100" relative="1" as="geometry">
            <mxPoint x="130" y="190" as="sourcePoint" />
            <mxPoint x="270" y="190" as="targetPoint" />
          </mxGeometry>
        </mxCell>
        <mxCell id="-OTsxO2Ze_JeyVa3Rk2h-6" value="" style="shape=link;html=1;rounded=0;entryX=0;entryY=0.5;entryDx=0;entryDy=0;exitX=1;exitY=0.5;exitDx=0;exitDy=0;fillColor=#f0a30a;strokeColor=#BD7000;width=10;fontFamily=Times New Roman;fontSize=15;" edge="1" parent="1" source="-OTsxO2Ze_JeyVa3Rk2h-2" target="-OTsxO2Ze_JeyVa3Rk2h-3">
          <mxGeometry width="100" relative="1" as="geometry">
            <mxPoint x="140" y="200" as="sourcePoint" />
            <mxPoint x="280" y="200" as="targetPoint" />
          </mxGeometry>
        </mxCell>
        <mxCell id="-OTsxO2Ze_JeyVa3Rk2h-7" value="" style="rounded=0;whiteSpace=wrap;html=1;fillColor=#fff2cc;gradientColor=#ffd966;strokeColor=#d6b656;fontFamily=Times New Roman;fontSize=15;" vertex="1" parent="1">
          <mxGeometry x="120" y="175" width="120" height="10" as="geometry" />
        </mxCell>
        <mxCell id="-OTsxO2Ze_JeyVa3Rk2h-10" value="" style="rounded=0;whiteSpace=wrap;html=1;fillColor=#dae8fc;strokeColor=#6c8ebf;fontFamily=Times New Roman;fontSize=15;" vertex="1" parent="1">
          <mxGeometry x="120" y="215" width="120" height="10" as="geometry" />
        </mxCell>
        <mxCell id="-OTsxO2Ze_JeyVa3Rk2h-11" value="" style="rounded=0;whiteSpace=wrap;html=1;fillColor=#fff2cc;gradientColor=#ffd966;strokeColor=#d6b656;fontFamily=Times New Roman;fontSize=15;" vertex="1" parent="1">
          <mxGeometry x="320" y="195" width="120" height="10" as="geometry" />
        </mxCell>
        <mxCell id="-OTsxO2Ze_JeyVa3Rk2h-12" value="5GHz" style="text;html=1;align=center;verticalAlign=middle;whiteSpace=wrap;rounded=0;fontFamily=Times New Roman;fontSize=15;" vertex="1" parent="1">
          <mxGeometry x="150" y="145" width="60" height="30" as="geometry" />
        </mxCell>
        <mxCell id="-OTsxO2Ze_JeyVa3Rk2h-13" value="5GHz" style="text;html=1;align=center;verticalAlign=middle;whiteSpace=wrap;rounded=0;fontFamily=Times New Roman;fontSize=15;" vertex="1" parent="1">
          <mxGeometry x="350" y="165" width="60" height="30" as="geometry" />
        </mxCell>
        <mxCell id="-OTsxO2Ze_JeyVa3Rk2h-14" value="2.4GHz" style="text;html=1;align=center;verticalAlign=middle;whiteSpace=wrap;rounded=0;fontFamily=Times New Roman;fontSize=15;" vertex="1" parent="1">
          <mxGeometry x="150" y="225" width="60" height="30" as="geometry" />
        </mxCell>
        <mxCell id="-OTsxO2Ze_JeyVa3Rk2h-15" value="ont" style="text;html=1;align=center;verticalAlign=middle;resizable=0;points=[];autosize=1;strokeColor=none;fillColor=none;fontFamily=Times New Roman;fontSize=15;" vertex="1" parent="1">
          <mxGeometry x="50" y="238" width="40" height="30" as="geometry" />
        </mxCell>
        <mxCell id="-OTsxO2Ze_JeyVa3Rk2h-16" value="repeater&lt;div style=&quot;font-size: 15px;&quot;&gt;(5GHz multiplexing)&lt;/div&gt;" style="text;html=1;align=center;verticalAlign=middle;resizable=0;points=[];autosize=1;strokeColor=none;fillColor=none;fontFamily=Times New Roman;fontSize=15;" vertex="1" parent="1">
          <mxGeometry x="205" y="230" width="150" height="50" as="geometry" />
        </mxCell>
        <mxCell id="-OTsxO2Ze_JeyVa3Rk2h-17" value="Throughput D" style="text;html=1;align=center;verticalAlign=middle;resizable=0;points=[];autosize=1;strokeColor=none;fillColor=none;fontFamily=Times New Roman;fontSize=15;" vertex="1" parent="1">
          <mxGeometry x="505" y="185" width="110" height="30" as="geometry" />
        </mxCell>
        <mxCell id="-OTsxO2Ze_JeyVa3Rk2h-18" value="" style="image;html=1;image=img/lib/clip_art/networking/Wireless_Router_N_128x128.png;fontFamily=Times New Roman;fontSize=15;" vertex="1" parent="1">
          <mxGeometry x="40" y="305" width="80" height="80" as="geometry" />
        </mxCell>
        <mxCell id="-OTsxO2Ze_JeyVa3Rk2h-19" value="" style="image;html=1;image=img/lib/clip_art/networking/Wireless_Router_N_128x128.png;fontFamily=Times New Roman;fontSize=15;" vertex="1" parent="1">
          <mxGeometry x="240" y="305" width="80" height="80" as="geometry" />
        </mxCell>
        <mxCell id="-OTsxO2Ze_JeyVa3Rk2h-20" value="" style="image;html=1;image=img/lib/clip_art/computers/Laptop_128x128.png;fontFamily=Times New Roman;fontSize=15;" vertex="1" parent="1">
          <mxGeometry x="440" y="305" width="80" height="80" as="geometry" />
        </mxCell>
        <mxCell id="-OTsxO2Ze_JeyVa3Rk2h-21" value="" style="shape=link;html=1;rounded=0;entryX=0;entryY=0.25;entryDx=0;entryDy=0;fillColor=#f0a30a;strokeColor=#BD7000;width=10;fontFamily=Times New Roman;fontSize=15;" edge="1" parent="1">
          <mxGeometry width="100" relative="1" as="geometry">
            <mxPoint x="121" y="360" as="sourcePoint" />
            <mxPoint x="240" y="360" as="targetPoint" />
          </mxGeometry>
        </mxCell>
        <mxCell id="-OTsxO2Ze_JeyVa3Rk2h-23" value="" style="shape=link;html=1;rounded=0;entryX=0;entryY=0.5;entryDx=0;entryDy=0;exitX=1;exitY=0.5;exitDx=0;exitDy=0;fillColor=#f0a30a;strokeColor=#BD7000;width=10;fontFamily=Times New Roman;fontSize=15;" edge="1" parent="1" source="-OTsxO2Ze_JeyVa3Rk2h-19" target="-OTsxO2Ze_JeyVa3Rk2h-20">
          <mxGeometry width="100" relative="1" as="geometry">
            <mxPoint x="140" y="345" as="sourcePoint" />
            <mxPoint x="280" y="345" as="targetPoint" />
          </mxGeometry>
        </mxCell>
        <mxCell id="-OTsxO2Ze_JeyVa3Rk2h-24" value="" style="rounded=0;whiteSpace=wrap;html=1;fillColor=#fff2cc;gradientColor=#ffd966;strokeColor=#d6b656;fontFamily=Times New Roman;fontSize=15;" vertex="1" parent="1">
          <mxGeometry x="120" y="355" width="120" height="10" as="geometry" />
        </mxCell>
        <mxCell id="-OTsxO2Ze_JeyVa3Rk2h-26" value="" style="rounded=0;whiteSpace=wrap;html=1;fillColor=#fff2cc;gradientColor=#ffd966;strokeColor=#d6b656;fontFamily=Times New Roman;fontSize=15;" vertex="1" parent="1">
          <mxGeometry x="320" y="340" width="120" height="10" as="geometry" />
        </mxCell>
        <mxCell id="-OTsxO2Ze_JeyVa3Rk2h-27" value="5GHz" style="text;html=1;align=center;verticalAlign=middle;whiteSpace=wrap;rounded=0;fontFamily=Times New Roman;fontSize=15;" vertex="1" parent="1">
          <mxGeometry x="150" y="325" width="60" height="30" as="geometry" />
        </mxCell>
        <mxCell id="-OTsxO2Ze_JeyVa3Rk2h-28" value="5GHz" style="text;html=1;align=center;verticalAlign=middle;whiteSpace=wrap;rounded=0;fontFamily=Times New Roman;fontSize=15;" vertex="1" parent="1">
          <mxGeometry x="350" y="310" width="60" height="30" as="geometry" />
        </mxCell>
        <mxCell id="-OTsxO2Ze_JeyVa3Rk2h-30" value="ont" style="text;html=1;align=center;verticalAlign=middle;resizable=0;points=[];autosize=1;strokeColor=none;fillColor=none;fontFamily=Times New Roman;fontSize=15;" vertex="1" parent="1">
          <mxGeometry x="50" y="383" width="40" height="30" as="geometry" />
        </mxCell>
        <mxCell id="-OTsxO2Ze_JeyVa3Rk2h-31" value="repeater&lt;div style=&quot;font-size: 15px;&quot;&gt;(5GHz multiplexing)&lt;/div&gt;" style="text;html=1;align=center;verticalAlign=middle;resizable=0;points=[];autosize=1;strokeColor=none;fillColor=none;fontFamily=Times New Roman;fontSize=15;" vertex="1" parent="1">
          <mxGeometry x="205" y="375" width="150" height="50" as="geometry" />
        </mxCell>
        <mxCell id="-OTsxO2Ze_JeyVa3Rk2h-32" value="Throughput E" style="text;html=1;align=center;verticalAlign=middle;resizable=0;points=[];autosize=1;strokeColor=none;fillColor=none;fontFamily=Times New Roman;fontSize=15;" vertex="1" parent="1">
          <mxGeometry x="505" y="330" width="110" height="30" as="geometry" />
        </mxCell>
        <mxCell id="-OTsxO2Ze_JeyVa3Rk2h-33" value="" style="image;html=1;image=img/lib/clip_art/networking/Wireless_Router_N_128x128.png;fontFamily=Times New Roman;fontSize=15;" vertex="1" parent="1">
          <mxGeometry x="40" y="435" width="80" height="80" as="geometry" />
        </mxCell>
        <mxCell id="-OTsxO2Ze_JeyVa3Rk2h-34" value="" style="image;html=1;image=img/lib/clip_art/networking/Wireless_Router_N_128x128.png;fontFamily=Times New Roman;fontSize=15;" vertex="1" parent="1">
          <mxGeometry x="240" y="435" width="80" height="80" as="geometry" />
        </mxCell>
        <mxCell id="-OTsxO2Ze_JeyVa3Rk2h-35" value="" style="image;html=1;image=img/lib/clip_art/computers/Laptop_128x128.png;fontFamily=Times New Roman;fontSize=15;" vertex="1" parent="1">
          <mxGeometry x="440" y="435" width="80" height="80" as="geometry" />
        </mxCell>
        <mxCell id="-OTsxO2Ze_JeyVa3Rk2h-37" value="" style="shape=link;html=1;rounded=0;entryX=0;entryY=0.75;entryDx=0;entryDy=0;exitX=1;exitY=0.75;exitDx=0;exitDy=0;fillColor=#1ba1e2;strokeColor=#006EAF;width=10;fontFamily=Times New Roman;fontSize=15;" edge="1" parent="1">
          <mxGeometry width="100" relative="1" as="geometry">
            <mxPoint x="120" y="479" as="sourcePoint" />
            <mxPoint x="240" y="479" as="targetPoint" />
          </mxGeometry>
        </mxCell>
        <mxCell id="-OTsxO2Ze_JeyVa3Rk2h-38" value="" style="shape=link;html=1;rounded=0;entryX=0;entryY=0.5;entryDx=0;entryDy=0;exitX=1;exitY=0.5;exitDx=0;exitDy=0;fillColor=#f0a30a;strokeColor=#BD7000;width=10;fontFamily=Times New Roman;fontSize=15;" edge="1" parent="1" source="-OTsxO2Ze_JeyVa3Rk2h-34" target="-OTsxO2Ze_JeyVa3Rk2h-35">
          <mxGeometry width="100" relative="1" as="geometry">
            <mxPoint x="140" y="475" as="sourcePoint" />
            <mxPoint x="280" y="475" as="targetPoint" />
          </mxGeometry>
        </mxCell>
        <mxCell id="-OTsxO2Ze_JeyVa3Rk2h-40" value="" style="rounded=0;whiteSpace=wrap;html=1;fillColor=#dae8fc;strokeColor=#6c8ebf;fontFamily=Times New Roman;fontSize=15;" vertex="1" parent="1">
          <mxGeometry x="120" y="474" width="120" height="10" as="geometry" />
        </mxCell>
        <mxCell id="-OTsxO2Ze_JeyVa3Rk2h-41" value="" style="rounded=0;whiteSpace=wrap;html=1;fillColor=#fff2cc;gradientColor=#ffd966;strokeColor=#d6b656;fontFamily=Times New Roman;fontSize=15;" vertex="1" parent="1">
          <mxGeometry x="320" y="470" width="120" height="10" as="geometry" />
        </mxCell>
        <mxCell id="-OTsxO2Ze_JeyVa3Rk2h-43" value="5GHz" style="text;html=1;align=center;verticalAlign=middle;whiteSpace=wrap;rounded=0;fontFamily=Times New Roman;fontSize=15;" vertex="1" parent="1">
          <mxGeometry x="350" y="440" width="60" height="30" as="geometry" />
        </mxCell>
        <mxCell id="-OTsxO2Ze_JeyVa3Rk2h-44" value="2.4GHz" style="text;html=1;align=center;verticalAlign=middle;whiteSpace=wrap;rounded=0;fontFamily=Times New Roman;fontSize=15;" vertex="1" parent="1">
          <mxGeometry x="150" y="444" width="60" height="30" as="geometry" />
        </mxCell>
        <mxCell id="-OTsxO2Ze_JeyVa3Rk2h-45" value="ont" style="text;html=1;align=center;verticalAlign=middle;resizable=0;points=[];autosize=1;strokeColor=none;fillColor=none;fontFamily=Times New Roman;fontSize=15;" vertex="1" parent="1">
          <mxGeometry x="50" y="513" width="40" height="30" as="geometry" />
        </mxCell>
        <mxCell id="-OTsxO2Ze_JeyVa3Rk2h-46" value="repeater&lt;div style=&quot;font-size: 15px;&quot;&gt;(5GHz multiplexing)&lt;/div&gt;" style="text;html=1;align=center;verticalAlign=middle;resizable=0;points=[];autosize=1;strokeColor=none;fillColor=none;fontFamily=Times New Roman;fontSize=15;" vertex="1" parent="1">
          <mxGeometry x="205" y="505" width="150" height="50" as="geometry" />
        </mxCell>
        <mxCell id="-OTsxO2Ze_JeyVa3Rk2h-47" value="Throughput A" style="text;html=1;align=center;verticalAlign=middle;resizable=0;points=[];autosize=1;strokeColor=none;fillColor=none;fontFamily=Times New Roman;fontSize=15;" vertex="1" parent="1">
          <mxGeometry x="505" y="460" width="110" height="30" as="geometry" />
        </mxCell>
        <mxCell id="-OTsxO2Ze_JeyVa3Rk2h-48" value="" style="endArrow=classic;html=1;rounded=0;fontFamily=Times New Roman;fontSize=15;" edge="1" parent="1">
          <mxGeometry relative="1" as="geometry">
            <mxPoint x="310" y="330" as="sourcePoint" />
            <mxPoint x="410" y="330" as="targetPoint" />
          </mxGeometry>
        </mxCell>
        <mxCell id="-OTsxO2Ze_JeyVa3Rk2h-49" value="" style="shape=message;html=1;outlineConnect=0;fontFamily=Times New Roman;fontSize=15;" vertex="1" parent="-OTsxO2Ze_JeyVa3Rk2h-48">
          <mxGeometry width="20" height="14" relative="1" as="geometry">
            <mxPoint x="-10" y="-7" as="offset" />
          </mxGeometry>
        </mxCell>
      </root>
    </mxGraphModel>
  </diagram>
</mxfile>
